#Comment line ignore any data following # character 
#Hierarchical Translation and Rotation (.htr) file 
[Header]	
#Header keywords are followed by a single value 
FileType HTR		#Single word string
DataType HTRS		#Translation followed by rotation and scale data
FileVersion 1		#integer
NumSegments 84		#integer
NumFrames 2		#integer
DataFrameRate 30		#integer, data frame rate in this file
EulerRotationOrder ZYX
CalibrationUnits mm
RotationUnits Degrees
GlobalAxisofGravity Y
BoneLengthAxis Y
ScaleFactor 1.00
[SegmentNames&Hierarchy]
#CHILD	PARENT
MASTER GLOBAL
root MASTER
chest root
L_mid_tent01 root
R_mid_tent01 root
spine01 root
Bip01_Neck chest
L_humerus chest
R_humerus chest
weapon_bone chest
Bip01_Head Bip01_Neck
eye_left_bone Bip01_Head
eye_right_bone Bip01_Head
L_forearm L_humerus
L_front_hand L_forearm
L_weapon_bone L_forearm
L_front_hand01_01 L_front_hand
L_front_hand02_01 L_front_hand
L_front_hand03_01 L_front_hand
L_front_hand01_02 L_front_hand01_01
L_front_hand02_02 L_front_hand02_01
L_front_hand03_02 L_front_hand03_01
R_forearm R_humerus
R_front_hand R_forearm
R_weapon_bone R_forearm
R_front_hand01_01 R_front_hand
R_front_hand02_01 R_front_hand
R_front_hand03_01 R_front_hand
R_front_hand01_02 R_front_hand01_01
R_front_hand02_02 R_front_hand02_01
R_front_hand03_02 R_front_hand03_01
null_rope01_connect L_mid_tent01
Rope1_Seg01 null_rope01_connect
Rope1_Seg02 Rope1_Seg01
Rope1_Seg03 Rope1_Seg02
Rope1_Seg04 Rope1_Seg03
Rope1_Seg05 Rope1_Seg04
Rope1_Seg06 Rope1_Seg05
Rope1_Seg07 Rope1_Seg06
Rope1_Seg09 Rope1_Seg07
L_mid_hand01 Rope1_Seg09
L_mid_hand02 Rope1_Seg09
L_mid_hand03 Rope1_Seg09
null_rope02_connect R_mid_tent01
Rope2_Seg01 null_rope02_connect
Rope2_Seg02 Rope2_Seg01
Rope2_Seg03 Rope2_Seg02
Rope2_Seg04 Rope2_Seg03
Rope2_Seg05 Rope2_Seg04
Rope2_Seg06 Rope2_Seg05
Rope2_Seg07 Rope2_Seg06
Rope2_Seg09 Rope2_Seg07
R_mid_hand01 Rope2_Seg09
R_mid_hand02 Rope2_Seg09
R_mid_hand03 Rope2_Seg09
spine02 spine01
spine03 spine02
pelvis spine03
null_rope03_connect pelvis
null_rope04_connect pelvis
Rope3_Seg01 null_rope03_connect
Rope3_Seg02 Rope3_Seg01
Rope3_Seg03 Rope3_Seg02
Rope3_Seg04 Rope3_Seg03
Rope3_Seg05 Rope3_Seg04
Rope3_Seg06 Rope3_Seg05
Rope3_Seg07 Rope3_Seg06
Rope3_Seg08 Rope3_Seg07
Rope3_Seg09 Rope3_Seg08
R_rear_hand01 Rope3_Seg09
R_rear_hand02 Rope3_Seg09
R_rear_hand03 Rope3_Seg09
Rope4_Seg01 null_rope04_connect
Rope4_Seg02 Rope4_Seg01
Rope4_Seg03 Rope4_Seg02
Rope4_Seg04 Rope4_Seg03
Rope4_Seg05 Rope4_Seg04
Rope4_Seg06 Rope4_Seg05
Rope4_Seg07 Rope4_Seg06
Rope4_Seg08 Rope4_Seg07
Rope4_Seg09 Rope4_Seg08
L_rear_hand01 Rope4_Seg09
L_rear_hand02 Rope4_Seg09
L_rear_hand03 Rope4_Seg09
[BasePosition]
#SegmentName Tx, Ty, Tz, Rx, Ry, Rz, BoneLength
MASTER 0.000000 0.000000 0.000000 -90.000000 0.000000 0.000000 10.000000 
root 0.000000 0.000000 0.000000 0.000000 0.000000 0.000000 10.000000 
chest 0.000000 0.000000 0.000000 0.000000 0.000000 0.000000 10.000000 
L_mid_tent01 0.000000 0.000000 0.000000 0.000000 0.000000 0.000000 10.000000 
R_mid_tent01 0.000000 0.000000 0.000000 0.000000 0.000000 0.000000 10.000000 
spine01 0.000000 0.000000 0.000000 0.000000 0.000000 0.000000 10.000000 
Bip01_Neck 0.000000 0.000000 0.000000 0.000000 0.000000 0.000000 10.000000 
L_humerus 0.000000 0.000000 0.000000 0.000000 0.000000 0.000000 10.000000 
R_humerus 0.000000 0.000000 0.000000 0.000000 0.000000 0.000000 10.000000 
weapon_bone 0.000000 0.000000 0.000000 0.000000 0.000000 0.000000 10.000000 
Bip01_Head 0.000000 0.000000 0.000000 0.000000 0.000000 0.000000 10.000000 
eye_left_bone 0.000000 0.000000 0.000000 0.000000 0.000000 0.000000 10.000000 
eye_right_bone 0.000000 0.000000 0.000000 0.000000 0.000000 0.000000 10.000000 
L_forearm 0.000000 0.000000 0.000000 0.000000 0.000000 0.000000 10.000000 
L_front_hand 0.000000 0.000000 0.000000 0.000000 0.000000 0.000000 10.000000 
L_weapon_bone 0.000000 0.000000 0.000000 0.000000 0.000000 0.000000 10.000000 
L_front_hand01_01 0.000000 0.000000 0.000000 0.000000 0.000000 0.000000 10.000000 
L_front_hand02_01 0.000000 0.000000 0.000000 0.000000 0.000000 0.000000 10.000000 
L_front_hand03_01 0.000000 0.000000 0.000000 0.000000 0.000000 0.000000 10.000000 
L_front_hand01_02 0.000000 0.000000 0.000000 0.000000 0.000000 0.000000 10.000000 
L_front_hand02_02 0.000000 0.000000 0.000000 0.000000 0.000000 0.000000 10.000000 
L_front_hand03_02 0.000000 0.000000 0.000000 0.000000 0.000000 0.000000 10.000000 
R_forearm 0.000000 0.000000 0.000000 0.000000 0.000000 0.000000 10.000000 
R_front_hand 0.000000 0.000000 0.000000 0.000000 0.000000 0.000000 10.000000 
R_weapon_bone 0.000000 0.000000 0.000000 0.000000 0.000000 0.000000 10.000000 
R_front_hand01_01 0.000000 0.000000 0.000000 0.000000 0.000000 0.000000 10.000000 
R_front_hand02_01 0.000000 0.000000 0.000000 0.000000 0.000000 0.000000 10.000000 
R_front_hand03_01 0.000000 0.000000 0.000000 0.000000 0.000000 0.000000 10.000000 
R_front_hand01_02 0.000000 0.000000 0.000000 0.000000 0.000000 0.000000 10.000000 
R_front_hand02_02 0.000000 0.000000 0.000000 0.000000 0.000000 0.000000 10.000000 
R_front_hand03_02 0.000000 0.000000 0.000000 0.000000 0.000000 0.000000 10.000000 
null_rope01_connect 0.000000 0.000000 0.000000 0.000000 0.000000 0.000000 10.000000 
Rope1_Seg01 0.000000 0.000000 0.000000 0.000000 0.000000 0.000000 10.000000 
Rope1_Seg02 0.000000 0.000000 0.000000 0.000000 0.000000 0.000000 10.000000 
Rope1_Seg03 0.000000 0.000000 0.000000 0.000000 0.000000 0.000000 10.000000 
Rope1_Seg04 0.000000 0.000000 0.000000 0.000000 0.000000 0.000000 10.000000 
Rope1_Seg05 0.000000 0.000000 0.000000 0.000000 0.000000 0.000000 10.000000 
Rope1_Seg06 0.000000 0.000000 0.000000 0.000000 0.000000 0.000000 10.000000 
Rope1_Seg07 0.000000 0.000000 0.000000 0.000000 0.000000 0.000000 10.000000 
Rope1_Seg09 0.000000 0.000000 0.000000 0.000000 0.000000 0.000000 10.000000 
L_mid_hand01 0.000000 0.000000 0.000000 0.000000 0.000000 0.000000 10.000000 
L_mid_hand02 0.000000 0.000000 0.000000 0.000000 0.000000 0.000000 10.000000 
L_mid_hand03 0.000000 0.000000 0.000000 0.000000 0.000000 0.000000 10.000000 
null_rope02_connect 0.000000 0.000000 0.000000 0.000000 0.000000 0.000000 10.000000 
Rope2_Seg01 0.000000 0.000000 0.000000 0.000000 0.000000 0.000000 10.000000 
Rope2_Seg02 0.000000 0.000000 0.000000 0.000000 0.000000 0.000000 10.000000 
Rope2_Seg03 0.000000 0.000000 0.000000 0.000000 0.000000 0.000000 10.000000 
Rope2_Seg04 0.000000 0.000000 0.000000 0.000000 0.000000 0.000000 10.000000 
Rope2_Seg05 0.000000 0.000000 0.000000 0.000000 0.000000 0.000000 10.000000 
Rope2_Seg06 0.000000 0.000000 0.000000 0.000000 0.000000 0.000000 10.000000 
Rope2_Seg07 0.000000 0.000000 0.000000 0.000000 0.000000 0.000000 10.000000 
Rope2_Seg09 0.000000 0.000000 0.000000 0.000000 0.000000 0.000000 10.000000 
R_mid_hand01 0.000000 0.000000 0.000000 0.000000 0.000000 0.000000 10.000000 
R_mid_hand02 0.000000 0.000000 0.000000 0.000000 0.000000 0.000000 10.000000 
R_mid_hand03 0.000000 0.000000 0.000000 0.000000 0.000000 0.000000 10.000000 
spine02 0.000000 0.000000 0.000000 0.000000 0.000000 0.000000 10.000000 
spine03 0.000000 0.000000 0.000000 0.000000 0.000000 0.000000 10.000000 
pelvis 0.000000 0.000000 0.000000 0.000000 0.000000 0.000000 10.000000 
null_rope03_connect 0.000000 0.000000 0.000000 0.000000 0.000000 0.000000 10.000000 
null_rope04_connect 0.000000 0.000000 0.000000 0.000000 0.000000 0.000000 10.000000 
Rope3_Seg01 0.000000 0.000000 0.000000 0.000000 0.000000 0.000000 10.000000 
Rope3_Seg02 0.000000 0.000000 0.000000 0.000000 0.000000 0.000000 10.000000 
Rope3_Seg03 0.000000 0.000000 0.000000 0.000000 0.000000 0.000000 10.000000 
Rope3_Seg04 0.000000 0.000000 0.000000 0.000000 0.000000 0.000000 10.000000 
Rope3_Seg05 0.000000 0.000000 0.000000 0.000000 0.000000 0.000000 10.000000 
Rope3_Seg06 0.000000 0.000000 0.000000 0.000000 0.000000 0.000000 10.000000 
Rope3_Seg07 0.000000 0.000000 0.000000 0.000000 0.000000 0.000000 10.000000 
Rope3_Seg08 0.000000 0.000000 0.000000 0.000000 0.000000 0.000000 10.000000 
Rope3_Seg09 0.000000 0.000000 0.000000 0.000000 0.000000 0.000000 10.000000 
R_rear_hand01 0.000000 0.000000 0.000000 0.000000 0.000000 0.000000 10.000000 
R_rear_hand02 0.000000 0.000000 0.000000 0.000000 0.000000 0.000000 10.000000 
R_rear_hand03 0.000000 0.000000 0.000000 0.000000 0.000000 0.000000 10.000000 
Rope4_Seg01 0.000000 0.000000 0.000000 0.000000 0.000000 0.000000 10.000000 
Rope4_Seg02 0.000000 0.000000 0.000000 0.000000 0.000000 0.000000 10.000000 
Rope4_Seg03 0.000000 0.000000 0.000000 0.000000 0.000000 0.000000 10.000000 
Rope4_Seg04 0.000000 0.000000 0.000000 0.000000 0.000000 0.000000 10.000000 
Rope4_Seg05 0.000000 0.000000 0.000000 0.000000 0.000000 0.000000 10.000000 
Rope4_Seg06 0.000000 0.000000 0.000000 0.000000 0.000000 0.000000 10.000000 
Rope4_Seg07 0.000000 0.000000 0.000000 0.000000 0.000000 0.000000 10.000000 
Rope4_Seg08 0.000000 0.000000 0.000000 0.000000 0.000000 0.000000 10.000000 
Rope4_Seg09 0.000000 0.000000 0.000000 0.000000 0.000000 0.000000 10.000000 
L_rear_hand01 0.000000 0.000000 0.000000 0.000000 0.000000 0.000000 10.000000 
L_rear_hand02 0.000000 0.000000 0.000000 0.000000 0.000000 0.000000 10.000000 
L_rear_hand03 0.000000 0.000000 0.000000 0.000000 0.000000 0.000000 10.000000 
#Beginning of Data. Separated by tabs
#Fr	Tx	Ty	Tz	Rx	Ry	Rz	SF
[MASTER]
53 180.315369 4697.946289 -60.807865 0.001660 0.001660 0.001660 4701.798828
54 120.210716 4798.630371 -40.538727 0.001660 0.001660 0.001660 4800.306641
[root]
53 -16.501465 -30.571735 1481.808716 -90.144882 -22.218634 -89.821404 1482.215820
54 -16.500769 -11.486351 1466.511475 -90.141869 -17.838610 -89.693695 1466.649292
[chest]
53 -84.512650 -34.090519 0.000000 -8.833179 2.251859 170.397079 91.129311
54 -84.512650 -34.090519 0.000000 -6.619998 1.470805 169.708679 91.129311
[L_mid_tent01]
53 27.298899 22.178963 -249.918823 -12.691028 28.752296 42.588448 252.381760
54 27.298895 22.178961 -249.918823 -16.493704 23.632992 32.045097 252.381760
[R_mid_tent01]
53 23.228794 24.509907 226.238495 -176.585342 -27.142347 44.043362 228.744751
54 23.228794 24.509907 226.238495 -172.353271 -24.525995 37.160946 228.744751
[spine01]
53 -0.361383 -0.195265 0.000000 0.001947 0.001311 22.077047 0.410763
54 -0.361383 -0.195265 0.000000 0.001947 0.001311 22.061932 0.410763
[Bip01_Neck]
53 165.484543 71.581718 0.000119 176.643677 -1.657967 43.431911 180.302734
54 165.484543 71.581718 0.000119 176.643677 -1.657967 43.431911 180.302734
[L_humerus]
53 -13.983130 -135.272980 -120.471481 143.051086 81.536179 -125.766518 181.680161
54 -13.983130 -135.272980 -120.471481 46.953262 86.344299 137.764648 181.680161
[R_humerus]
53 -13.983309 -135.273102 125.287651 173.291473 -78.858658 -77.674637 184.909012
54 -13.983309 -135.273102 125.287651 109.968842 -85.718971 -14.339893 184.909012
[weapon_bone]
53 235.964890 -300.705902 0.000000 0.000000 -89.951546 -128.212341 382.234833
54 235.964890 -300.705902 0.000000 0.000000 -89.951546 -128.212341 382.234833
[Bip01_Head]
53 213.442825 185.718079 11.741447 10.180585 4.116336 -43.873302 283.172913
54 213.443085 185.717133 11.753285 7.593728 3.460280 -43.888031 283.172974
[eye_left_bone]
53 -24.626970 125.451866 -64.772606 0.000000 -90.000000 -99.840431 143.318359
54 -24.626970 125.451866 -64.772606 0.000000 -90.000000 -99.840431 143.318359
[eye_right_bone]
53 -24.626970 125.451866 64.327362 0.000000 -89.965736 80.156380 143.117676
54 -24.626970 125.451866 64.327362 0.000000 -89.965736 80.156380 143.117676
[L_forearm]
53 322.776093 0.000000 -0.000119 0.000378 -0.002317 -108.548599 322.776093
54 322.776093 0.000000 -0.000119 0.000384 -0.002316 -108.844810 322.776093
[L_front_hand]
53 241.149185 -0.042021 -3.300071 -105.490540 -1.835781 -27.423635 241.171753
54 241.149185 -0.042021 -3.300071 -105.490540 -1.835781 -27.423635 241.171753
[L_weapon_bone]
53 156.183838 0.000000 0.000000 0.000014 0.000007 0.000001 156.183838
54 156.183838 0.000000 0.000000 0.000014 0.000007 0.000001 156.183838
[L_front_hand01_01]
53 86.095154 20.947098 -0.655860 -0.366594 -0.477154 75.385574 88.609184
54 86.095154 20.947098 -0.655860 -0.366594 -0.477154 75.385574 88.609184
[L_front_hand02_01]
53 86.935165 -11.437475 24.513514 154.399796 -59.883835 -61.369587 91.046425
54 86.935165 -11.437475 24.513514 154.399796 -59.883835 -61.369587 91.046425
[L_front_hand03_01]
53 86.637497 -14.123976 -20.424902 -153.913849 58.118122 -62.702866 90.126129
54 86.637497 -14.123976 -20.424902 -153.913849 58.118122 -62.702866 90.126129
[L_front_hand01_02]
53 71.020905 -0.000179 0.000030 0.000334 -0.002323 -106.379684 71.020905
54 71.020905 -0.000179 0.000030 0.000334 -0.002323 -106.379684 71.020905
[L_front_hand02_02]
53 71.020927 -0.000119 0.000060 0.000334 -0.002323 -106.379684 71.020927
54 71.020927 -0.000119 0.000060 0.000334 -0.002323 -106.379684 71.020927
[L_front_hand03_02]
53 71.020905 -0.000060 0.000060 0.000334 -0.002323 -106.379684 71.020905
54 71.020905 -0.000060 0.000060 0.000334 -0.002323 -106.379684 71.020905
[R_forearm]
53 322.776428 -0.000060 0.000030 0.205107 0.058690 -107.189323 322.776428
54 322.776428 -0.000060 0.000030 0.206412 0.061228 -107.493484 322.776428
[R_front_hand]
53 238.847015 -0.006795 2.210259 15.488859 -10.646104 -26.316046 238.857239
54 238.847015 -0.006795 2.210259 15.488859 -10.646104 -26.316046 238.857239
[R_weapon_bone]
53 155.664093 0.002503 -0.000030 0.003487 0.001180 -90.988930 155.664078
54 155.664093 0.002503 -0.000030 0.003487 0.001180 -90.988930 155.664078
[R_front_hand01_01]
53 87.624611 14.231146 22.918642 -154.633499 -59.950619 61.746044 91.683487
54 87.624611 14.231146 22.918642 -154.633499 -59.950619 61.746044 91.683487
[R_front_hand02_01]
53 89.356956 14.367283 -19.491137 154.602661 58.302849 63.744389 92.579636
54 89.356956 14.367283 -19.491137 154.602661 58.302849 63.744389 92.579636
[R_front_hand03_01]
53 87.286232 -22.307278 -0.143439 0.162155 -0.423168 -75.767921 90.091743
54 87.286232 -22.307278 -0.143439 0.162155 -0.423168 -75.767921 90.091743
[R_front_hand01_02]
53 71.020905 0.000060 0.000119 0.002323 -0.000334 106.381714 71.020905
54 71.020905 0.000060 0.000119 0.002323 -0.000334 106.381714 71.020905
[R_front_hand02_02]
53 71.020844 -0.000030 -0.000119 0.002323 -0.000334 106.381714 71.020836
54 71.020844 -0.000030 -0.000119 0.002323 -0.000334 106.381714 71.020836
[R_front_hand03_02]
53 71.020905 0.000000 0.000030 0.002323 -0.000334 106.381714 71.020905
54 71.020905 0.000000 0.000030 0.002323 -0.000334 106.381714 71.020905
[null_rope01_connect]
53 328.732483 0.000000 -0.000238 -135.742126 -58.784931 -157.846100 328.732483
54 328.732483 0.000000 -0.000238 -141.179596 -61.515743 -146.426834 328.732483
[Rope1_Seg01]
53 -0.000036 -0.000002 0.000153 41.068256 2.855887 -123.719360 0.000157
54 -0.000037 -0.000001 0.000153 48.949574 -5.386406 -119.823906 0.000157
[Rope1_Seg02]
53 139.999863 -0.000179 0.000000 21.944672 4.664009 9.793974 139.999863
54 139.999863 -0.000179 0.000000 27.111963 11.990640 5.050743 139.999863
[Rope1_Seg03]
53 139.999924 0.000060 -0.000060 8.131721 -4.403635 8.713409 139.999924
54 139.999924 0.000060 -0.000060 5.360468 10.178179 -5.263999 139.999924
[Rope1_Seg04]
53 139.999924 -0.000060 -0.000119 14.388934 26.215240 -10.617176 139.999924
54 139.999924 -0.000060 -0.000119 17.268187 10.745291 8.177529 139.999924
[Rope1_Seg05]
53 139.999832 0.000119 -0.000060 -1.734476 20.360748 -19.419050 139.999832
54 139.999832 0.000119 -0.000060 8.167821 5.366693 4.321929 139.999832
[Rope1_Seg06]
53 139.999954 0.000119 -0.000060 -0.029225 6.281860 -5.529753 139.999954
54 139.999954 0.000119 -0.000060 2.586253 2.352847 0.826621 139.999954
[Rope1_Seg07]
53 139.999985 0.000060 0.000000 -0.005136 3.430613 -3.036852 139.999985
54 139.999985 0.000060 0.000000 1.520872 1.469806 0.441600 139.999985
[Rope1_Seg09]
53 121.602913 0.000119 -0.000089 -89.793175 -1.359789 0.847147 121.602913
54 121.602913 0.000119 -0.000089 -89.793175 -1.359789 0.847147 121.602913
[L_mid_hand01]
53 103.859421 1.038730 8.195221 130.544373 -67.584534 -38.866943 104.187431
54 103.859421 1.038730 8.195221 130.544373 -67.584534 -38.866943 104.187431
[L_mid_hand02]
53 105.572853 -4.139662 -10.864139 -168.923172 43.409309 -73.498886 106.211075
54 105.572853 -4.139662 -10.864139 -168.923172 43.409309 -73.498886 106.211075
[L_mid_hand03]
53 104.641464 17.579376 -3.913581 -6.012626 17.808172 74.893661 106.179977
54 104.641464 17.579376 -3.913581 -6.012625 17.808172 74.893669 106.179977
[null_rope02_connect]
53 328.732849 0.000179 -0.000119 -118.944893 62.614933 -6.246514 328.732849
54 328.732849 0.000179 -0.000119 -126.695923 64.249992 -15.653824 328.732849
[Rope2_Seg01]
53 0.000074 0.000295 0.000144 9.251944 -1.310530 -47.454433 0.000336
54 0.000075 0.000298 0.000147 9.426585 0.104391 -47.771202 0.000341
[Rope2_Seg02]
53 139.999741 -0.000060 -0.000119 -10.726607 -1.150812 -3.487465 139.999756
54 139.999741 -0.000060 -0.000119 -17.986980 -2.834560 -6.034351 139.999756
[Rope2_Seg03]
53 140.000107 0.000030 0.000000 -7.443729 1.611683 -3.989900 140.000107
54 140.000107 0.000030 0.000000 -13.024972 0.951241 -6.875901 140.000107
[Rope2_Seg04]
53 139.999802 0.000000 -0.000060 -5.265609 1.131252 -3.115468 139.999802
54 139.999802 0.000000 -0.000060 -7.472767 -0.542152 -3.770047 139.999802
[Rope2_Seg05]
53 139.999985 -0.000060 0.000119 -7.434663 -7.940096 1.064829 139.999985
54 139.999985 -0.000060 0.000119 -2.922335 -5.225400 1.140399 139.999985
[Rope2_Seg06]
53 139.999893 -0.000030 -0.000119 -8.941189 -5.695414 0.511879 139.999893
54 139.999893 -0.000030 -0.000119 -1.819484 -2.508689 0.476880 139.999893
[Rope2_Seg07]
53 139.999893 0.000060 -0.000060 -6.213579 -2.001717 -0.315709 139.999893
54 139.999893 0.000060 -0.000060 -1.496804 -1.067036 -0.023976 139.999893
[Rope2_Seg09]
53 121.338966 0.000089 -0.000060 33.793236 -1.359788 -0.847141 121.338966
54 121.338966 0.000089 -0.000060 33.793236 -1.359788 -0.847141 121.338966
[R_mid_hand01]
53 104.680779 11.144459 -10.335981 -16.212063 45.237247 70.462852 105.778534
54 104.680779 11.144459 -10.335981 -16.212063 45.237247 70.462852 105.778534
[R_mid_hand02]
53 104.070427 2.443552 8.231699 49.067368 -67.749771 39.286453 104.424065
54 104.070427 2.443552 8.231699 49.067368 -67.749771 39.286453 104.424065
[R_mid_hand03]
53 106.028137 -11.221827 -5.996406 -177.101105 15.551026 -76.585571 106.788818
54 106.028137 -11.221827 -5.996406 -177.101105 15.551026 -76.585571 106.788818
[spine02]
53 129.756927 0.001550 0.000119 0.271682 -4.052996 -11.667616 129.756927
54 129.756927 0.001550 0.000119 0.301363 -4.050436 -12.089163 129.756927
[spine03]
53 78.613899 0.081643 -4.898952 1.842441 3.857875 15.696987 78.766434
54 78.613899 0.081640 -4.898951 1.860499 3.849094 15.955679 78.766434
[pelvis]
53 169.435242 0.051022 0.000000 -0.053069 -0.181577 12.514473 169.435257
54 169.435242 0.051022 0.000000 -0.056374 -0.181049 13.049613 169.435257
[null_rope03_connect]
53 -1.257226 -2.466202 137.391083 22.089060 -89.049614 51.527473 137.418976
54 -1.257226 -2.466202 137.391083 25.147526 -88.981056 43.719669 137.418976
[null_rope04_connect]
53 -1.259640 -2.480268 -137.844437 22.089060 -89.049614 51.527473 137.872513
54 -1.259640 -2.480268 -137.844437 25.147526 -88.981056 43.719669 137.872513
[Rope3_Seg01]
53 0.000000 0.000000 0.000000 16.044098 -7.303802 -69.729218 0.000000
54 0.000000 0.000000 0.000000 17.228289 6.755026 -76.590828 0.000000
[Rope3_Seg02]
53 139.999924 -0.000119 0.000060 0.713886 6.246778 -0.836111 139.999924
54 139.999924 -0.000119 0.000060 0.229143 2.907886 1.165149 139.999924
[Rope3_Seg03]
53 139.999924 -0.000119 0.000119 1.141513 7.248704 -1.095655 139.999924
54 139.999924 -0.000119 0.000119 0.336105 3.256804 1.668734 139.999924
[Rope3_Seg04]
53 139.999924 0.000119 0.000000 1.061588 5.462898 -0.928119 139.999924
54 139.999924 0.000119 0.000000 0.343216 3.064192 1.485207 139.999924
[Rope3_Seg05]
53 139.999924 -0.000238 0.000060 -0.783866 -4.157507 0.916022 139.999924
54 139.999924 -0.000238 0.000060 0.216106 -1.245337 -2.434269 139.999924
[Rope3_Seg06]
53 139.999893 -0.000119 -0.000060 -0.241384 -3.400100 0.686704 139.999893
54 139.999893 -0.000119 -0.000060 0.435903 -1.498802 -2.185404 139.999893
[Rope3_Seg07]
53 139.999771 0.000060 -0.000119 0.270470 -1.339312 0.275481 139.999771
54 139.999771 0.000060 -0.000119 0.525705 -0.522819 -1.034411 139.999771
[Rope3_Seg08]
53 139.999985 -0.000060 0.000000 0.395968 -0.854588 0.181704 139.999985
54 139.999985 -0.000060 0.000000 0.542770 -0.346339 -0.667653 139.999985
[Rope3_Seg09]
53 90.185997 -0.000179 -0.000060 89.793228 -1.359877 -0.847183 90.185997
54 90.185997 -0.000179 -0.000060 89.793228 -1.359877 -0.847183 90.185997
[R_rear_hand01]
53 103.366196 -6.073594 -10.757982 172.856537 -15.220671 -75.434441 104.101845
54 103.366196 -6.073594 -10.757982 172.856537 -15.220671 -75.434441 104.101845
[R_rear_hand02]
53 100.509819 12.039542 -7.992327 -12.874829 36.868488 72.167213 101.543350
54 100.509819 12.039542 -7.992327 -12.874829 36.868488 72.167213 101.543350
[R_rear_hand03]
53 101.539970 5.215704 5.435467 71.484581 -71.816628 21.513813 101.819031
54 101.539970 5.215704 5.435467 71.484581 -71.816628 21.513813 101.819031
[Rope4_Seg01]
53 -0.000019 -0.000289 -0.000153 -99.908974 10.594887 -108.667435 0.000327
54 -0.000019 -0.000294 -0.000153 -102.698410 18.703773 -113.840668 0.000332
[Rope4_Seg02]
53 139.999985 0.000060 0.000119 0.199657 -9.567544 -2.958415 139.999985
54 139.999985 0.000060 0.000119 0.139207 -7.232551 -2.881656 139.999985
[Rope4_Seg03]
53 139.999924 0.000000 -0.000238 0.854582 -13.703364 -4.440835 139.999924
54 139.999924 0.000000 -0.000238 0.459060 -10.791323 -4.419329 139.999924
[Rope4_Seg04]
53 139.999985 0.000000 0.000119 2.548662 -19.850903 -6.730052 139.999985
54 139.999985 0.000000 0.000119 2.394256 -23.142296 -11.401512 139.999985
[Rope4_Seg05]
53 139.999802 -0.000060 -0.000119 0.919695 0.868504 1.695250 139.999802
54 139.999802 -0.000060 -0.000119 1.582767 0.756310 3.400780 139.999802
[Rope4_Seg06]
53 139.999924 0.000000 0.000060 0.318017 4.616678 2.321187 139.999924
54 139.999924 0.000000 0.000060 1.724095 11.847467 7.988893 139.999924
[Rope4_Seg07]
53 139.999802 0.000000 0.000000 0.322488 0.716861 0.686196 139.999802
54 139.999802 0.000000 0.000000 0.408068 3.144172 2.546211 139.999802
[Rope4_Seg08]
53 139.999924 0.000000 0.000119 -1.342010 0.441790 0.416898 139.999924
54 139.999924 0.000000 0.000119 -1.344470 1.859271 1.488614 139.999924
[Rope4_Seg09]
53 90.185791 0.000060 0.000060 -135.617828 2.228885 0.850567 90.185791
54 90.185791 0.000060 0.000060 -135.617828 2.228885 0.850567 90.185791
[L_rear_hand01]
53 101.696655 -8.392275 -7.654577 -12.874829 -36.868488 107.832764 102.329041
54 101.696655 -8.392275 -7.654577 -12.874829 -36.868488 107.832764 102.329041
[L_rear_hand02]
53 102.726799 -1.568258 5.773216 71.484581 71.816628 158.486160 102.900848
54 102.726799 -1.568258 5.773216 71.484581 71.816628 158.486160 102.900848
[L_rear_hand03]
53 104.552910 9.721220 -10.420293 -177.714203 -24.565960 -106.089035 105.519653
54 104.552910 9.721220 -10.420293 -177.714203 -24.565960 -106.089035 105.519653
